<?xml version="1.0" standalone="no"?>
<!DOCTYPE svg PUBLIC "-//W3C//DTD SVG 20010904//EN"
 "http://www.w3.org/TR/2001/REC-SVG-20010904/DTD/svg10.dtd">
<svg version="1.0" xmlns="http://www.w3.org/2000/svg"
 width="32.000000pt" height="32.000000pt" viewBox="0 0 32.000000 32.000000"
 preserveAspectRatio="xMidYMid meet">

<g transform="translate(0.000000,32.000000) scale(0.100000,-0.100000)"
fill="#000000" stroke="none">
<path d="M0 160 l0 -160 160 0 160 0 0 160 0 160 -160 0 -160 0 0 -160z m301
103 c8 -8 -7 -38 -61 -120 -40 -59 -76 -109 -80 -111 -5 -2 -37 41 -72 95 -85
129 -82 122 -67 139 11 13 35 15 141 12 78 -2 131 -7 139 -15z"/>
<path d="M38 254 c-3 -5 23 -51 57 -103 l63 -93 62 92 c34 50 59 94 56 97 -9
10 -233 16 -238 7z m136 -24 c26 -10 36 -43 16 -55 -5 -3 -10 -15 -10 -25 0
-10 -5 -22 -11 -26 -13 -7 -9 35 6 70 7 17 4 18 -28 14 -40 -4 -48 5 -19 21
21 13 16 13 46 1z m-4 -130 c0 -5 -5 -10 -11 -10 -5 0 -7 5 -4 10 3 6 8 10 11
10 2 0 4 -4 4 -10z"/>
</g>
</svg>
